/* XPM */
static char *_3b46fa327f841fac8ff3558aa5a792bQl9cb6poTouJJ2V7[] = {
/* columns rows colors chars-per-pixel */
"64 64 10 1 ",
"  c #4A3C36",
". c #5D483C",
"X c #353540",
"o c #446350",
"O c #557D55",
"+ c #E39347",
"@ c #EEB551",
"# c #918D8D",
"$ c #BFB8B4",
"% c #EDE4DA",
/* pixels */
"oooooooooooooooooooooooooooooooooooooooooooooooooooooooooooooooo",
"ooooooooooooooooXXXXXXXXXXXXXXXXXXXXXXXXXXXXXXXXXXXooooooooooooo",
"ooooooooooooooooXXXXXXXXXXXXXXXXXXXXXXXXXXXXXXXXXXXooooooooooooo",
"ooooooooooooooooXXXXXXXXXXXXXXXXXXXXXXXXXXXXXXXXXXXooooooooooooo",
"ooooooooooooooooXX$$$$$$$$$$$$$@@@@@$$%%%%%%%%%XXXXooooooooooooo",
"ooooooooooooooooXX$$$$$$$$$$$$$@@@@@$$%%%%%%%%%XXXXooooooooooooo",
"ooooooooooooooooXX#############+++++###########XXXXooooooooooooo",
"ooooooooooooooooXX#############+++++###########XXXXooooooooooooo",
"ooooooooooooooooXX#############+++++###########XXXXooooooooooooo",
"ooooooooooooooooXX#############+++++###########XXXXooooooooooooo",
"ooooooooooooooooXX####.....    ..............##XXXXooooooooooooo",
"ooooooooooooooooXX####.....    ..............##XXXXooooooooooooo",
"ooooooooooooooooXX####.....    ..............##XXXXooooooooooooo",
"ooooooooooooooooXX####.....    ..............##XXXXooooooooooooo",
"ooooooooooooooooXX####.....    ..............##XXXXooooooooooooo",
"ooooooooooooooooXX####                       ##XXXXooooooooooooo",
"ooooooooooooooooXX####                       ##XXXXooooooooooooo",
"ooooooooooooooooXX####                       ##XXXXooooooooooooo",
"ooooooooooooooooXX####                       ##XXXXooooooooooooo",
"ooooooooooooooooXX####..............  .......##XXXXooooooooooooo",
"ooooooooooooooooXX####..............  .......##XXXXooooooooooooo",
"ooooooooooooooooXX####..............  .......##XXXXooooooooooooo",
"ooooooooooooooooXX####..............  .......##XXXXooooooooooooo",
"ooooooooooooooooXX####..............  .......##XXXXooooooooooooo",
"ooooooooooooooooXX$$$$#######################$$XXXXooooooooooooo",
"ooooooooooooooooXX$$$$#######################$$XXXXooooooooooooo",
"ooooooooooooooooXX$$$$XXXXXXXXXXXXXXXXXXXXXXX$$XXXXooooooooooooo",
"ooooooooooooooooXX$$$$XXXXXXXXXXXXXXXXXXXXXXX$$XXXXooooooooooooo",
"ooooooooooooooooXX$$$$XXXXXXXXXXXXXXXXXXXXXXX$$XXXXooooooooooooo",
"ooooooooooooooooXX$$$$XXXXXXXXXXXXXXXXXXXXXXX$$XXXXooooooooooooo",
"oooooooooooooOOOXX$$$$XXXXXXXXXXXXXXXXXXXXXXX$$XXXXOOooooooooooo",
"oooooooooooooOOOXX$$$$XXXXXXXXXXXXXXXXXXXXXXX$$XXXXOOooooooooooo",
"oooooooooooooOOOXX$$$$XXXXXXXXXXXXXXXXXXXXXXX$$XXXXOOooooooooooo",
"oooooooooooooOOOXX$$$$XXXXXXXXXXXXXXXXXXXXXXX$$XXXXOOooooooooooo",
"oooooooooooooOOOXX$$$$XXXXXXXXXXXXXXXXXXXXXXX$$XXXXOOooooooooooo",
"oooooooooooooOOOXX$$$$XXXXXXXXXXXXXXXXXXXXXXX$$XXXXOOooooooooooo",
"oooooooooooooOOOXX$$$$XXXXXXXXXXXXXXXXXXXXXXX$$XXXXOOooooooooooo",
"oooooooooooooOOOXX$$$$XXXXXXXXXXXXXXXXXXXXXXX$$XXXXOOooooooooooo",
"oooooooooooooOOOXX$$$$XXXXXXXXXXXXXXXXXXXXXXX$$XXXXOOooooooooooo",
"oooooooooooooOOOXX$$$$$$$$$$$$$$$$$$$$$$$$$$$$$XXXXOOooooooooooo",
"oooooooooooooOOOXX$$$$$$$$$$$$$$$$$$$$$$$$$$$$$XXXXOOooooooooooo",
"oooooooooooooOOOXX#############################XXXXOOooooooooooo",
"oooooooooooooOOOXX#############################XXXXOOooooooooooo",
"oooooooooooooOOOXX#############################XXXXOOooooooooooo",
"oooooooooooooOOOXX####.....    ..............##XXXXOOooooooooooo",
"oooooooooooooOOOXX####.....    ..............##XXXXOOooooooooooo",
"oooooooooooooOOOXX####                       ##XXXXOOooooooooooo",
"oooooooooooooOOOXX####                       ##XXXXOOooooooooooo",
"oooooooooooooOOOXX####                       ##XXXXOOooooooooooo",
"oooooooooooooOOOXX####                       ##XXXXOOooooooooooo",
"oooooooooooooOOOXX####..............  .......##XXXXOOooooooooooo",
"oooooooooooooOOOXX####..............  .......##XXXXOOooooooooooo",
"oooooooooooooOOOXX####..............  .......##XXXXOOooooooooooo",
"oooooooooooooOOOXX#############################XXXXOOooooooooooo",
"oooooooooooooOOOXX#############################XXXXOOooooooooooo",
"oooooooooooooOOOXXXXXXXXXXXXXXXXXXXXXXXXXXXXXXXXXXXOOooooooooooo",
"oooooooooooooOOOXXXXXXXXXXXXXXXXXXXXXXXXXXXXXXXXXXXOOooooooooooo",
"oooooooooooooOOOXXXXXXXXXXXXXXXXXXXXXXXXXXXXXXXXXXXOOooooooooooo",
"oooooooooooooOOOXXXXXXXXXXXXXXXXXXXXXXXXXXXXXXXXXXXOOooooooooooo",
"oooooooooooooOOOOOOOOOOOOOOOOOOOOOOOOOOOOOOOOOOOOOOOOooooooooooo",
"oooooooooooooOOOOOOOOOOOOOOOOOOOOOOOOOOOOOOOOOOOOOOOOooooooooooo",
"oooooooooooooooooooooooooooooooooooooooooooooooooooooooooooooooo",
"oooooooooooooooooooooooooooooooooooooooooooooooooooooooooooooooo",
"oooooooooooooooooooooooooooooooooooooooooooooooooooooooooooooooo"
};
