/* XPM */
static char *db456908f05f4f88f42c686faaed5844gSoxWMVGePFbGGi0[] = {
/* columns rows colors chars-per-pixel */
"64 64 11 1 ",
"  c #4A3C36",
". c #5D483C",
"X c #353540",
"o c #735B42",
"O c #446350",
"+ c #557D55",
"@ c #E39347",
"# c #EEB551",
"$ c #918D8D",
"% c #BFB8B4",
"& c #EDE4DA",
/* pixels */
"OOOOOOOOOOOOOOOOOOOOOOOOOOOOOOOOOOOOOOOOOOOOOOOOOOOOOOOOOOOOOOOO",
"OOOOOOOOOOOOOOOOOOOOOOOOOOOOOOOOOOOOOOOOOOOOOOOOOOOOOOOOOOOOOOOO",
"OOOOOOOOOOOOOOOOOOOOOOOOOOOOOOOOOOOOOOOOOOOOOOOOOOOOOOOOOOOOOOOO",
"OOOOOOOOOOOOOOOOOOOOOOOOOOOOOOOOOOOOOOOOOOOOOOOOOOOOOOOOOOOOOOOO",
"OOOOOOOOOOOOOOOOOOOOOOOOOOOOOOOOOOOOOOOOOOOOOOOOOOOOOOOOOOOOOOOO",
"OOOOOOOOOOOOOOOOOOOOOOOOOOOOOOOOOOOOOOOOOOOOOOOOOOOOOOOOOOOOOOOO",
"OOOOOOOOOOOOOOOOOOOOOOOOOOOOOOOOOOOOOOOOOOOOOOOOOOOOOOOOOOOOOOOO",
"OOOOOOOOOOOOOOOOOOOOOOOOOOOOOOOOOOOOOOOOOOOOOOOOOOOOOOOOOOOOOOOO",
"OOOOOOOOOOOOOOOOOOOOOOOOOOOOOOOOOOOOOOOOOOOOOOOOOOOOOOOOOOOOOOOO",
"OOOOOOOOOOOOOOOOOOOOOOOOOOOOOOOOOOOOOOOOOOOOOOOOOOOOOOOOOOOOOOOO",
"OOOOOOOOOOOOOOOOOOOOOOOOOOOOOOOOOOOOOOOOOOOOOOOOOOOOOOOOOOOOOOOO",
"OOOOOOOOOOOOOOOOOOOOOOOOOOOOOOOOOOOOOOOOOOOOOOOOOOOOOOOOOOOOOOOO",
"OOOOOOOOOOOOOOOOOOOOOOOOOOOOOOOOOOOOOOOOOOOOOOOOOOOOOOOOOOOOOOOO",
"OOOOOOOOOOOOOOOOOOOOOOOOOOOOOOOOOOOOOOOOOOOOOOOOOOOOOOOOOOOOOOOO",
"OOOOOOOOOOOOOOOOOOOOOOOOOOOOOOOOOOOOOOOOOOOOOOOOOOOOOOOOOOOOOOOO",
"OOOOOOOOOOOOOOOOOOOOOOOOOOOOOOOOOOOOOOOOOOOOOOOOOOOOOOOOOOOOOOOO",
"OOOOOOOOOOOOOOOOOOOOOOOOOOOOOOOOOOOOOOOOOOOOOOOOOOOOOOOOOOOOOOOO",
"OOOOOOOOOOOOOOOOOOOOOOOOOOOOOOOOOOOOOOOOOOOOOOOOOOOOOOOOOOOOOOOO",
"OOOOOOOOOOOOOOOOOOOOOOOOOOOOOOOOOOOOOOOOOOOOOOOOOOOOOOOOOOOOOOOO",
"OOOOOOOOOOOOOOOOOXXXXXXXXXXXXXXXXXXXXXXXXXXXXXXXXXOOOOOOOOOOOOOO",
"OOOOOOOOOOOOOOOOOXXXXXXXXXXXXXXXXXXXXXXXXXXXXXXXXXOOOOOOOOOOOOOO",
"OOOOOOOOOOOOOOOOOXXX%%%%%%%%%%%%%%%%%%%%&&&&&&&XXXOOOOOOOOOOOOOO",
"OOOOOOOOOOOOOOOOOXXX%%%%%%%%%%%%%%%%%%%%&&&&&&&XXXOOOOOOOOOOOOOO",
"OOOOOOOOOOOOOOOOOXXX%%%%%%%%%%%%%%%%%%%%&&&&&&&XXXOOOOOOOOOOOOOO",
"OOOOOOOOOOOOOOOOOXXX%%oooooo...oooooooooooo&&&&XXXOOOOOOOOOOOOOO",
"OOOOOOOOOOOOOOOOOXXX%%oooooo...oooooooooooo&&&&XXXOOOOOOOOOOOOOO",
"OOOOOOOOOOOOOOOOOXXX%%oooooo...oooooooooooo%%%%XXXOOOOOOOOOOOOOO",
"OOOOOOOOOOOOOOOOOXXX%%oooooo...oooooooooooo%%%%XXXOOOOOOOOOOOOOO",
"OOOOOOOOOOOOOOOOOXXX%%oooooo...oooooooooooo%%%%XXXOOOOOOOOOOOOOO",
"OOOOOOOOOOOOOOOOOXXX%%oooooo...oooooooooooo%%%%XXXOOOOOOOOOOOOOO",
"OOOOOOOOOOOOO++++XXX%%.....................%%%%XXX++OOOOOOOOOOOO",
"OOOOOOOOOOOOO++++XXX%%.....................%%%%XXX++OOOOOOOOOOOO",
"OOOOOOOOOOOOO++++XXX%%.....................%%%%XXX++OOOOOOOOOOOO",
"OOOOOOOOOOOOO++++XXX%%ooooooooooooooo...ooo%%%%XXX++OOOOOOOOOOOO",
"OOOOOOOOOOOOO++++XXX%%ooooooooooooooo...ooo%%%%XXX++OOOOOOOOOOOO",
"OOOOOOOOOOOOO++++XXX%%ooooooooooooooo...ooo%%%%XXX++OOOOOOOOOOOO",
"OOOOOOOOOOOOO++++XXX%%ooooooooooooooo...ooo%%%%XXX++OOOOOOOOOOOO",
"OOOOOOOOOOOOO++++XXX%%ooooooooooooooo...ooo%%%%XXX++OOOOOOOOOOOO",
"OOOOOOOOOOOOO++++XXX%%ooooooooooooooo...ooo%%%%XXX++OOOOOOOOOOOO",
"OOOOOOOOOOOOO++++XXX%%%%%%%%%%%######%%%%%%%%%%XXX++OOOOOOOOOOOO",
"OOOOOOOOOOOOO++++XXX%%%%%%%%%%%######%%%%%%%%%%XXX++OOOOOOOOOOOO",
"OOOOOOOOOOOOO++++XXX$$$$$$$$$$$@@@@@@$$$$$$$$$$XXX++OOOOOOOOOOOO",
"OOOOOOOOOOOOO++++XXX$$$$$$$$$$$@@@@@@$$$$$$$$$$XXX++OOOOOOOOOOOO",
"OOOOOOOOOOOOO++++XXX$$$$$$$$$$$@@@@@@$$$$$$$$$$XXX++OOOOOOOOOOOO",
"OOOOOOOOOOOOO++++XXX$$......   @@@@@@......$$$$XXX++OOOOOOOOOOOO",
"OOOOOOOOOOOOO++++XXX$$......   @@@@@@......$$$$XXX++OOOOOOOOOOOO",
"OOOOOOOOOOOOO++++XXX$$                     $$$$XXX++OOOOOOOOOOOO",
"OOOOOOOOOOOOO++++XXX$$                     $$$$XXX++OOOOOOOOOOOO",
"OOOOOOOOOOOOO++++XXX$$                     $$$$XXX++OOOOOOOOOOOO",
"OOOOOOOOOOOOO++++XXX$$                     $$$$XXX++OOOOOOOOOOOO",
"OOOOOOOOOOOOO++++XXX$$...............   ...$$$$XXX++OOOOOOOOOOOO",
"OOOOOOOOOOOOO++++XXX$$...............   ...$$$$XXX++OOOOOOOOOOOO",
"OOOOOOOOOOOOO++++XXX$$...............   ...$$$$XXX++OOOOOOOOOOOO",
"OOOOOOOOOOOOO++++XXX$$$$$$$$$$$$$$$$$$$$$$$$$$$XXX++OOOOOOOOOOOO",
"OOOOOOOOOOOOO++++XXX$$$$$$$$$$$$$$$$$$$$$$$$$$$XXX++OOOOOOOOOOOO",
"OOOOOOOOOOOOO++++XXXXXXXXXXXXXXXXXXXXXXXXXXXXXXXXX++OOOOOOOOOOOO",
"OOOOOOOOOOOOO++++XXXXXXXXXXXXXXXXXXXXXXXXXXXXXXXXX++OOOOOOOOOOOO",
"OOOOOOOOOOOOO++++XXXXXXXXXXXXXXXXXXXXXXXXXXXXXXXXX++OOOOOOOOOOOO",
"OOOOOOOOOOOOO++++XXXXXXXXXXXXXXXXXXXXXXXXXXXXXXXXX++OOOOOOOOOOOO",
"OOOOOOOOOOOOO+++++++++++++++++++++++++++++++++++++++OOOOOOOOOOOO",
"OOOOOOOOOOOOO+++++++++++++++++++++++++++++++++++++++OOOOOOOOOOOO",
"OOOOOOOOOOOOOOOOOOOOOOOOOOOOOOOOOOOOOOOOOOOOOOOOOOOOOOOOOOOOOOOO",
"OOOOOOOOOOOOOOOOOOOOOOOOOOOOOOOOOOOOOOOOOOOOOOOOOOOOOOOOOOOOOOOO",
"OOOOOOOOOOOOOOOOOOOOOOOOOOOOOOOOOOOOOOOOOOOOOOOOOOOOOOOOOOOOOOOO"
};
