/* XPM */
static char *abae669aee684e2e92af2acad7648c7aTdQ68hY45LLBGioY[] = {
/* columns rows colors chars-per-pixel */
"64 64 8 1 ",
"  c None",
". c #323821",
"X c #C43F31",
"o c #88A043",
"O c #9FBC4D",
"+ c #D8B78F",
"@ c #FFD7A8",
"# c white",
/* pixels */
"                                                                ",
"                                                                ",
"                                                                ",
"                                                                ",
"                                                                ",
"                                                                ",
"                                                                ",
"                                                                ",
"                                                                ",
"                 ................................               ",
"                 ................................               ",
"              ......ooooooooooOOOOOOOOOOOOOOOOOOO...            ",
"              ......ooooooooooOOOOOOOOOOOOOOOOOOO...            ",
"              ......ooooooooooOOOOOOOOOOOOOOOOOOO...            ",
"           ...XXX...oooooooooooooOOOOOooooooooOOO...            ",
"           ...XXX...oooooooooooooOOOOOooooooooOOO...            ",
"           ...XXX...oooooooooooooOOOOOooooooooOOO...            ",
"           ...XXX...oo###...##oooOOO..OOOOOOOO......            ",
"           ...XXX...oo###...##oooOOO..OOOOOOOO......            ",
"           .........oo###...##oooOOOOOOOOOOOOOOOO...            ",
"           .........oo###...##oooOOOOOOOOOOOOOOOO...            ",
"           .........oo###...##oooOOOOOOOOOOOOOOOO...            ",
"              ...XXX..########oooOOOOOOOOOOOOOOOO...            ",
"              ...XXX..########oooOOOOOOOOOOOOOOOO...            ",
"              ...XXX..########oooOOOOOOOOOOOOOOOO...            ",
"              ...XXX..oooooooooooOOOOOOOOOOOOOOOO...            ",
"              ...XXX..oooooooooooOOOOOOOOOOOOOOOO...            ",
"              ........ooooooooooooooOO..............            ",
"              ........ooooooooooooooOO..............            ",
"              ........ooooooooooooooOO..............            ",
"                    .....oooooOOOOOOOOOOO...                    ",
"                    .....oooooOOOOOOOOOOO...                    ",
"                    .....oooooOOOOOOOOOOO...                    ",
"                      ...ooo++@@@@@@@@@@@...                    ",
"                      ...ooo++@@@@@@@@@@@...                    ",
"                 ........ooo++@@@@@@@@@@@...                    ",
"                 ........ooo++@@@@@@@@@@@...                    ",
"                 ........ooo++@@@@@@@@@@@...                    ",
"                 ...OOOOOooo++@@@@@@@@@@@...                    ",
"                 ...OOOOOooo++@@@@@@@@@@@...                    ",
"                 ...OOOOOooo++@@@@@@@@@@@...                    ",
"                 .....ooooooooOOO+++++OOO...                    ",
"                 .....ooooooooOOO+++++OOO...                    ",
"                    .....oooOOOOOOOOOOOOO...                    ",
"                    .....oooOOOOOOOOOOOOO...                    ",
"                    .....oooOOOOOOOOOOOOO...                    ",
"                      ...oooOO......ooOOO...                    ",
"                      ...oooOO......ooOOO...                    ",
"                      ...oooOO......ooOOO...                    ",
"                      ...ooo..   ...oo...                       ",
"                      ...ooo..   ...oo...                       ",
"                      ......     .....                          ",
"                      ......     .....                          ",
"                      ......     .....                          ",
"                                                                ",
"                                                                ",
"                                                                ",
"                                                                ",
"                                                                ",
"                                                                ",
"                                                                ",
"                                                                ",
"                                                                ",
"                                                                "
};
