/* XPM */
static char *_990dcdf8d0a43b19d21129dcae4b011QXsLsfTjlDKW6ypZ[] = {
/* columns rows colors chars-per-pixel */
"64 64 10 1 ",
"  c #4A3C36",
". c #5D483C",
"X c #353540",
"o c #735B42",
"O c #446350",
"+ c #557D55",
"@ c #E56F4B",
"# c #E39347",
"$ c #EEB551",
"% c #EDE4DA",
/* pixels */
"OOOOOOOOOOOOOOOOOOOOOOOOOOOOOOOOOOOOOOOOOOOOOOOOOOOOOOOOOOOOOOOO",
"OOOOOOOOOOOOOOOOOOOOOOOOOOOOOOOOOOOOOOOOOOOOOOOOOOOOOOOOOOOOOOOO",
"OOOOOOOOOOOOOOOOOOOOOOOOOOOOOOOOOOOOOOOOOOOOOOOOOOOOOOOOOOOOOOOO",
"OOOOOOOOOOOOOOOOOOOOOOOOOOOOOOOOOOOOOOOOOOOOOOOOOOOOOOOOOOOOOOOO",
"OOOOOOOOOOOOOOOOOOOOOOOOOOOOOOOOOOOOOOOOOOOOOOOOOOOOOOOOOOOOOOOO",
"OOOOOOOOOOOOOOOOOOOOOOXXXXXXXXXXOOOOOOOOOOOOOOOOOOOOOOOOOOOOOOOO",
"OOOOOOOOOOOOOOOOOOOOOOXXXXXXXXXXOOOOOOOOOOOOOOOOOOOOOOOOOOOOOOOO",
"OOOOOOOOOOOOOOOOOOOOOOXXXXXXXXXXOOOOOOOOOOOOOOOOOOOOOOOOOOOOOOOO",
"OOOOOOOOOOOOOOOOOOOOOOXXX$$$XXXXXXXXXXOOOOOOOOOOOOOOOOOOOOOOOOOO",
"OOOOOOOOOOOOOOOOOOOOOOXXX$$$XXXXXXXXXXOOOOOOOOOOOOOOOOOOOOOOOOOO",
"OOOOOOOOOOOOOOOOOOOOOOXXX$$$XXXXXXXXXXOOOOOOOOOOOOOOOOOOOOOOOOOO",
"OOOOOOOOOOOOOOXXXXXXXXXXXXXXXXXX@@@XXXOOOOOOOOOOOOOOOOOOOOOOOOOO",
"OOOOOOOOOOOOOOXXXXXXXXXXXXXXXXXX@@@XXXOOOOOOOOOOOOOOOOOOOOOOOOOO",
"OOOOOOOOOOOOOOXXXXXXXXXXXXXXXXXX@@@XXXOOOOOOOOOOOOOOOOOOOOOOOOOO",
"OOOOOOOOOOOOOOXXX#####XXXXXX@@@@@@@XXXXXXOOOOOOOOOOOOOOOOOOOOOOO",
"OOOOOOOOOOOOOOXXX#####XXXXXX@@@@@@@XXXXXXOOOOOOOOOOOOOOOOOOOOOOO",
"OOOOOOOOOOOOOOXXX#####XXXXXX@@@@@@@XXXXXXOOOOOOOOOOOOOOOOOOOOOOO",
"OOOOOOOOOOOOOOXXX#####XXXXXX@@@@@@@XXXXXXOOOOOOOOOOOOOOOOOOOOOOO",
"OOOOOOOOOOOOOOXXX#####XXXXXX@@@@@@@XXXXXXOOOOOOOOOOOOOOOOOOOOOOO",
"OOOOOOOOOOOOOOXXXXXXXXXXX@@@@@@@@@@@@@XXXXXXXXXXXOOOOOOOOOOOOOOO",
"OOOOOOOOOOOOOOXXXXXXXXXXX@@@@@@@@@@@@@XXXXXXXXXXXOOOOOOOOOOOOOOO",
"OOOOOOOOOOOOOOXXXXXXXXXXX@@@@@@@@@@@@@XXXXXXXXXXXOOOOOOOOOOOOOOO",
"OOOOOOOOOOOXXXXXXoooooooo@@@#######@@@%%%%%%%%XXXXXXOOOOOOOOOOOO",
"OOOOOOOOOOOXXXXXXoooooooo@@@#######@@@%%%%%%%%XXXXXXOOOOOOOOOOOO",
"OOOOOOOOOOOXXXXXXoooooooo@@@#######@@@%%%%%%%%XXXXXXOOOOOOOOOOOO",
"OOOOOOOOOOOXXX...ooooo@@@@@@#######@@@@@@%%%%%...XXXOOOOOOOOOOOO",
"OOOOOOOOOOOXXX...ooooo@@@@@@#######@@@@@@%%%%%...XXXOOOOOOOOOOOO",
"OOOOOOOOOOOXXX...ooooo@@@@@@#######@@@@@@%%%%%...XXXOOOOOOOOOOOO",
"OOOOOOOOOOOXXX...ooooo@@@@@@#######@@@@@@%%%%%...XXXOOOOOOOOOOOO",
"OOOOOOOO+++XXX...ooooo@@@#############@@@ooooo...XXX++++OOOOOOOO",
"OOOOOOOO+++XXX...ooooo@@@#############@@@ooooo...XXX++++OOOOOOOO",
"OOOOOOOO+++XXX...ooooo@@@#############@@@ooooo...XXX++++OOOOOOOO",
"OOOOOOOO+++XXX   ooooo@@@###$$$$$$$###@@@ooooo   XXX++++OOOOOOOO",
"OOOOOOOO+++XXX   ooooo@@@###$$$$$$$###@@@ooooo   XXX++++OOOOOOOO",
"OOOOOOOO+++XXX   ooooo@@@###$$$$$$$###@@@ooooo   XXX++++OOOOOOOO",
"OOOOOOOO+++XXX...oooooooo###$$$$$$$###oooooooo...XXX++++OOOOOOOO",
"OOOOOOOO+++XXX...oooooooo###$$$$$$$###oooooooo...XXX++++OOOOOOOO",
"OOOOOOOO+++XXX...oooooooo###$$$$$$$###oooooooo...XXX++++OOOOOOOO",
"OOOOOOOO+++XXX...oooooooo...ooooooo...oooooooo...XXX++++OOOOOOOO",
"OOOOOOOO+++XXX...oooooooo...ooooooo...oooooooo...XXX++++OOOOOOOO",
"OOOOOOOO+++XXX...oooooooo...ooooooo...oooooooo...XXX++++OOOOOOOO",
"OOOOOOOO+++XXX...oooooooo...ooooooo...oooooooo...XXX++++OOOOOOOO",
"OOOOOOOO+++XXX...oooooooo...ooooooo...oooooooo...XXX++++OOOOOOOO",
"OOOOOOOO+++XXX   oooooooo   ooooooo   oooooooo   XXX++++OOOOOOOO",
"OOOOOOOO+++XXX   oooooooo   ooooooo   oooooooo   XXX++++OOOOOOOO",
"OOOOOOOO+++XXX   oooooooo   ooooooo   oooooooo   XXX++++OOOOOOOO",
"OOOOOOOO+++XXXXXX........XXX.......XXX........XXXXXX++++OOOOOOOO",
"OOOOOOOO+++XXXXXX........XXX.......XXX........XXXXXX++++OOOOOOOO",
"OOOOOOOO+++XXXXXX........XXX.......XXX........XXXXXX++++OOOOOOOO",
"OOOOOOOO++++++XXXXXXXXXXXXXXXXXXXXXXXXXXXXXXXXXXX+++++++OOOOOOOO",
"OOOOOOOO++++++XXXXXXXXXXXXXXXXXXXXXXXXXXXXXXXXXXX+++++++OOOOOOOO",
"OOOOOOOO++++++XXXXXXXXXXXXXXXXXXXXXXXXXXXXXXXXXXX+++++++OOOOOOOO",
"OOOOOOOO++++++XXXXXXXXXXXXXXXXXXXXXXXXXXXXXXXXXXX+++++++OOOOOOOO",
"OOOOOOOOOOO+++++++++++++++++++++++++++++++++++++++++OOOOOOOOOOOO",
"OOOOOOOOOOO+++++++++++++++++++++++++++++++++++++++++OOOOOOOOOOOO",
"OOOOOOOOOOO+++++++++++++++++++++++++++++++++++++++++OOOOOOOOOOOO",
"OOOOOOOOOOO+++++++++++++++++++++++++++++++++++++++++OOOOOOOOOOOO",
"OOOOOOOOOOO+++++++++++++++++++++++++++++++++++++++++OOOOOOOOOOOO",
"OOOOOOOOOOOOOOOOOOOOOOOOOOOOOOOOOOOOOOOOOOOOOOOOOOOOOOOOOOOOOOOO",
"OOOOOOOOOOOOOOOOOOOOOOOOOOOOOOOOOOOOOOOOOOOOOOOOOOOOOOOOOOOOOOOO",
"OOOOOOOOOOOOOOOOOOOOOOOOOOOOOOOOOOOOOOOOOOOOOOOOOOOOOOOOOOOOOOOO",
"OOOOOOOOOOOOOOOOOOOOOOOOOOOOOOOOOOOOOOOOOOOOOOOOOOOOOOOOOOOOOOOO",
"OOOOOOOOOOOOOOOOOOOOOOOOOOOOOOOOOOOOOOOOOOOOOOOOOOOOOOOOOOOOOOOO",
"OOOOOOOOOOOOOOOOOOOOOOOOOOOOOOOOOOOOOOOOOOOOOOOOOOOOOOOOOOOOOOOO"
};
