/* XPM */
static char *_2bc8ed268d4478acef52190e1e82aa7w2DU5LTPMBYLhxLW[] = {
/* columns rows colors chars-per-pixel */
"64 64 10 1 ",
"  c #4F3E34",
". c #353540",
"X c #735B42",
"o c #446350",
"O c #557D55",
"+ c #E39347",
"@ c #EEB551",
"# c #918D8D",
"$ c #BFB8B4",
"% c #EDE4DA",
/* pixels */
"oooooooooooooooooooooooooooooooooooooooooooooooooooooooooooooooo",
"ooooooooooooooooooooooooo.............oooooooooooooooooooooooooo",
"ooooooooooooooooooooooooo.............oooooooooooooooooooooooooo",
"ooooooooooooooooooooooooo.............oooooooooooooooooooooooooo",
"ooooooooooooooooooooooooo....+++@@@...oooooooooooooooooooooooooo",
"ooooooooooooooooooooooooo....+++@@@...oooooooooooooooooooooooooo",
"ooooooooooooooooooooooooo....+++@@@...oooooooooooooooooooooooooo",
"ooooooooooooooooooooooooo....   XXX...oooooooooooooooooooooooooo",
"ooooooooooooooooooooooooo....   XXX...oooooooooooooooooooooooooo",
"ooooooooooooooooooooooooo....   XXX...oooooooooooooooooooooooooo",
"ooooooooooooooooooooooooo....   XXX...oooooooooooooooooooooooooo",
"ooooooooooooooooooooooooo....   XXX...oooooooooooooooooooooooooo",
"ooooooooooooooooooooooooo....   XXX...oooooooooooooooooooooooooo",
"ooooooooooooooooooooooooo....   XXX...oooooooooooooooooooooooooo",
"ooooooooooooooooooooooooo....   XXX...oooooooooooooooooooooooooo",
"ooooooooooooooooooooooooo....   XXX...oooooooooooooooooooooooooo",
"ooooooooooooooooooooooooo....   XXX...oooooooooooooooooooooooooo",
"ooooooooooooooooooo..........      ...........oooooooooooooooooo",
"ooooooooooooooooooo..........      ...........oooooooooooooooooo",
"ooooooooooooooooooo..........      ...........oooooooooooooooooo",
"ooooooooooooooooooo...++++++++++@@@@@@@@@@@...oooooooooooooooooo",
"ooooooooooooooooooo...++++++++++@@@@@@@@@@@...oooooooooooooooooo",
"ooooooooooooooooooo...++++++++++@@@@@@@@@@@...oooooooooooooooooo",
"ooooooooooooooooooo...++++++++++@@@@@@@@@@@...oooooooooooooooooo",
"ooooooooooooooooooo...++++++++++@@@@@@@@@@@...oooooooooooooooooo",
"ooooooooooooooooooo......++++$$$%%%@@@........oooooooooooooooooo",
"ooooooooooooooooooo......++++$$$%%%@@@........oooooooooooooooooo",
"ooooooooooooooooooo......++++$$$%%%@@@........oooooooooooooooooo",
"oooooooooooooo...........$$$$$$$%%%%%%...........ooooooooooooooo",
"oooooooooooooo...........$$$$$$$%%%%%%...........ooooooooooooooo",
"oooooooooooooo...........$$$$$$$%%%%%%...........ooooooooooooooo",
"oooooooooooooo.....$$$...$$$$$$$%%%%%%.....%%%...ooooooooooooooo",
"oooooooooooooo.....$$$...$$$$$$$%%%%%%.....%%%...ooooooooooooooo",
"oooooooooooooo.....$$$...$$$$$$$%%%%%%.....%%%...ooooooooooooooo",
"oooooooooooooo.....$$$...$$$$$$$%%%%%%.....%%%...ooooooooooooooo",
"oooooooooooooo.....$$$...$$$$$$$%%%%%%.....$$$...ooooooooooooooo",
"oooooooooooooo.....$$$...$$$$$$$%%%%%%.....$$$...ooooooooooooooo",
"oooooooooooooo.....$$$...$$$$$$$%%%%%%.....$$$...ooooooooooooooo",
"ooooooooooOOOO.....$$$$$$$$$$$$$%%%$$$$$$$$$$$...OOOOooooooooooo",
"ooooooooooOOOO.....$$$$$$$$$$$$$%%%$$$$$$$$$$$...OOOOooooooooooo",
"ooooooooooOOOO.....$$$$$$$$$$$$$%%%$$$$$$$$$$$...OOOOooooooooooo",
"ooooooooooOOOO.....$$$$$$$$$$$$$$$$$$$$$$$$$$$...OOOOooooooooooo",
"ooooooooooOOOO.....$$$$$$$$$$$$$$$$$$$$$$$$$$$...OOOOooooooooooo",
"ooooooooooOOOO.....$$$$$$$$$$$$$$$$$$$$$$$$$$$...OOOOooooooooooo",
"ooooooooooOOOO.....###$$$$$$$$$$$$$$$$$$$$$###...OOOOooooooooooo",
"ooooooooooOOOO.....###$$$$$$$$$$$$$$$$$$$$$###...OOOOooooooooooo",
"ooooooooooOOOO.....###$$$$$$$$$$$$$$$$$$$$$###...OOOOooooooooooo",
"ooooooooooOOOO.....###$$$$$$$$$$$$$$$$$$$$$###...OOOOooooooooooo",
"ooooooooooOOOO.....###$$$$$$$$$$$$$$$$$$$$$###...OOOOooooooooooo",
"ooooooooooOOOO.....###########################...OOOOooooooooooo",
"ooooooooooOOOO.....###########################...OOOOooooooooooo",
"ooooooooooOOOO.....###########################...OOOOooooooooooo",
"ooooooooooOOOO.....###########################...OOOOooooooooooo",
"ooooooooooOOOO.....###########################...OOOOooooooooooo",
"ooooooooooOOOO.....###########################...OOOOooooooooooo",
"ooooooooooOOOOOOOOOOOO#####################OOOOOOOOOOooooooooooo",
"ooooooooooOOOOOOOOOOOO#####################OOOOOOOOOOooooooooooo",
"ooooooooooOOOOOOOOOOOO#####################OOOOOOOOOOooooooooooo",
"ooooooooooOOOOOOOOOOOO#####################OOOOOOOOOOooooooooooo",
"ooooooooooooooOOOOOOOOOOOOOOOOOOOOOOOOOOOOOOOOOOOooooooooooooooo",
"ooooooooooooooOOOOOOOOOOOOOOOOOOOOOOOOOOOOOOOOOOOooooooooooooooo",
"ooooooooooooooOOOOOOOOOOOOOOOOOOOOOOOOOOOOOOOOOOOooooooooooooooo",
"oooooooooooooooooooooooooooooooooooooooooooooooooooooooooooooooo",
"oooooooooooooooooooooooooooooooooooooooooooooooooooooooooooooooo"
};
